<svg width="512" height="512" viewBox="0 0 512 512" fill="none" xmlns="http://www.w3.org/2000/svg">
<path d="M252.567 20.3092C250.963 20.3079 249.734 20.3164 249.259 20.3383C248.788 20.3632 247.076 20.4754 245.475 20.5751C209.931 22.9061 176.186 36.7803 149.102 60.1906C142.403 65.9871 135.505 73.0303 129.91 79.7866C104.588 110.352 91.2016 148.397 91.8095 188.05C91.8964 194.457 92.1693 198.87 92.8268 204.629C96.7349 239.209 111.263 271.308 134.798 297.311C137.006 299.754 142.552 305.351 144.983 307.595C163.109 324.311 184.758 336.802 208.045 343.982L209.621 344.468V322.068V299.679L208.79 299.243C207.475 298.545 204.807 296.725 203.728 295.79C199.956 292.499 197.822 287.201 197.363 280.046L197.276 278.737L195.788 278.226C190.676 276.481 183.704 272.666 179.622 269.363C173.952 264.788 168.705 258.057 165.442 251.188C162.898 245.828 161.385 240.705 160.554 234.609C160.405 233.599 160.305 231.567 160.243 228.314L160.132 223.515L160.802 219.775C161.571 215.412 161.918 214.003 163.084 210.289C164.821 204.804 177.141 165.886 177.55 164.615C177.774 163.892 182.438 149.195 187.897 131.955C198.356 98.9088 198.282 99.1332 199.15 97.0764C201.507 91.5417 204.708 86.7174 208.877 82.4168C211.668 79.5373 214.1 77.5179 217.276 75.4486C221.618 72.6064 225.129 70.9983 230.774 69.2407C235.414 67.7947 237.796 67.4581 243.304 67.4581C246.828 67.4457 247.473 67.4831 249.061 67.7324C250.19 67.9194 257.832 69.7517 269.904 72.7559C280.387 75.3612 292.669 78.4154 297.21 79.5498C301.751 80.6717 306.217 81.8309 307.135 82.1051C316.502 84.9473 325.236 90.3948 331.539 97.3381C344.454 111.549 348.747 130.746 343.102 148.971C342.593 150.616 334.578 175.934 333.127 180.508C332.693 181.88 326.365 201.862 319.058 224.911L305.783 266.833L303.475 271.146C302.198 273.527 300.821 275.945 300.399 276.543C294.158 285.431 284.94 291.976 274.333 295.067C272.596 295.566 269.569 296.239 268.13 296.451C267.658 296.513 267.497 296.6 267.348 296.862C264.904 301.4 262.572 304.728 260.574 306.535C259.495 307.52 257.845 308.605 256.753 309.066C255.81 309.452 253.651 309.964 252.895 309.964C252.671 309.964 252.274 310.001 252.026 310.038L251.555 310.125V330.694V351.262L257.919 351.187C267.174 351.087 273.613 350.576 281.95 349.28C322.47 342.997 359.441 321.444 385.184 289.084C404.563 264.726 416.659 235.569 420.158 204.754C421.336 194.308 421.535 183.188 420.704 172.468C418.049 137.839 404.265 104.543 381.574 77.9791C376.314 71.8211 369.775 65.2517 363.771 60.0909C342.221 41.5546 316.639 29.0018 289.121 23.4421C282.099 22.0335 275.127 21.111 266.876 20.5002C265.564 20.4067 257.379 20.3133 252.567 20.3092ZM242.588 74.1536C241.744 74.1577 240.935 74.1895 240.203 74.2518C234.533 74.738 227.685 77.0441 222.337 80.2851C214.484 85.0221 208.43 92.1026 205.105 100.442C204.46 102.063 201.184 112.185 201.184 112.571C201.184 112.721 201.371 112.758 202.214 112.758C203.219 112.758 203.232 112.758 202.909 112.982C201.681 113.818 200.663 115.002 200.056 116.311C199.733 116.996 195.229 131.008 195.229 131.319C195.229 131.407 195.527 131.456 196.011 131.456C196.433 131.456 196.867 131.519 196.966 131.581C197.066 131.643 197.09 131.706 197.016 131.706C196.793 131.706 195.254 133.177 194.845 133.775C194.634 134.087 194.311 134.648 194.125 135.047C193.803 135.707 189.212 150.018 189.299 150.092C189.324 150.105 189.746 150.167 190.242 150.23L191.135 150.342L190.465 150.865C189.684 151.476 188.815 152.523 188.294 153.52C188.096 153.894 186.917 157.435 185.677 161.374C184.423 165.313 183.381 168.604 183.356 168.691C183.319 168.778 183.617 168.866 184.25 168.915L185.205 169.003L184.721 169.389C183.84 170.1 182.947 171.159 182.488 172.032C182.19 172.605 181.235 175.423 179.721 180.197L177.401 187.489L178.258 187.564C178.717 187.601 179.126 187.651 179.151 187.689C179.188 187.726 178.903 188 178.53 188.299C177.786 188.898 176.893 190.02 176.434 190.93C176.173 191.428 171.533 205.851 171.533 206.138C171.533 206.2 171.967 206.25 172.501 206.25L173.456 206.262L172.96 206.649C171.298 207.97 170.628 209.055 169.672 211.947C168.432 215.749 168.022 217.394 167.303 221.583C166.93 223.814 166.918 224.001 166.93 227.254C166.943 229.224 167.03 231.418 167.141 232.552C168.097 242.163 172.079 251.425 178.406 258.717C179.821 260.35 182.786 263.23 184.064 264.227C186.421 266.072 190.031 268.254 193.245 269.799C195.825 271.033 196.755 271.395 200.626 272.679C202.822 273.414 204.212 273.938 204.199 274.025C204.063 274.711 204.038 278.899 204.15 280.233C204.435 283.499 204.906 285.444 205.986 287.65C206.606 288.934 206.792 289.196 207.81 290.218C208.442 290.841 209.46 291.689 210.117 292.125C211.259 292.886 215.836 295.254 216.159 295.254C216.296 295.254 216.32 300.128 216.32 320.809C216.32 334.857 216.358 346.363 216.395 346.363C216.444 346.363 217.412 346.587 218.541 346.849C220.948 347.423 224.744 348.22 227.263 348.669C228.243 348.844 229.161 349.006 229.322 349.043L229.595 349.105V333.586C229.595 325.047 229.62 318.066 229.657 318.066C229.694 318.066 230.389 318.265 231.196 318.502C232.002 318.739 232.771 318.939 232.92 318.939C233.478 318.939 238.962 322.292 240.116 323.339L240.389 323.588V337.039C240.389 344.431 240.426 350.477 240.488 350.477C240.538 350.477 241.381 350.564 242.374 350.663C243.366 350.763 244.297 350.85 244.458 350.85H244.731V326.842V302.833L245.202 302.908C247.287 303.232 251.778 303.344 253.056 303.107C254.147 302.908 255.165 302.322 256.17 301.325C257.944 299.592 260.003 296.438 262.038 292.337L263.105 290.193L264.619 290.043C274.345 289.121 283.563 284.771 290.436 277.865C293.687 274.599 296.044 271.295 298.153 267.044C298.6 266.147 299.034 265.324 299.108 265.237C299.27 265.038 299.257 265.075 301.528 257.857C302.557 254.604 303.451 251.6 303.525 251.201C303.798 249.705 303.624 247.586 303.116 246.165L302.93 245.641L303.91 246.389C304.58 246.9 304.927 247.099 304.964 246.987C305.237 246.252 309.046 234.061 309.195 233.487C309.542 231.991 309.344 229.187 308.798 227.753C308.736 227.591 309.021 227.753 309.617 228.227C310.113 228.613 310.559 228.937 310.609 228.937C310.758 228.937 314.951 215.412 315.088 214.477C315.299 213.044 315.038 210.787 314.517 209.566C314.455 209.416 314.803 209.628 315.386 210.089C315.931 210.501 316.378 210.837 316.403 210.812C316.502 210.725 320.572 197.723 320.72 197.025C321.055 195.53 320.906 193.036 320.41 191.74C320.336 191.541 320.299 191.366 320.323 191.329C320.348 191.304 320.758 191.59 321.229 191.977C321.701 192.351 322.122 192.612 322.16 192.563C322.209 192.513 323.202 189.446 324.368 185.744C326.762 178.19 326.886 177.616 326.626 175.572C326.539 174.936 326.378 174.126 326.254 173.752C326.13 173.391 326.055 173.091 326.092 173.091C326.13 173.091 326.539 173.403 327.01 173.79C327.482 174.176 327.891 174.463 327.916 174.438C328.003 174.35 332.072 161.386 332.246 160.626C332.531 159.404 332.494 157.31 332.159 155.989C331.998 155.403 331.936 154.941 332.01 154.979C332.072 155.029 332.482 155.328 332.903 155.677C333.449 156.101 333.698 156.238 333.747 156.113C333.97 155.515 336.849 146.303 337.109 145.38C338.784 139.397 339.206 132.454 338.275 126.308C336.129 112.197 327.445 99.744 314.827 92.7009C311.937 91.0929 308.153 89.4973 305.088 88.5749C303.81 88.2009 251.679 75.1743 249.942 74.8003C247.96 74.3796 245.119 74.1413 242.588 74.1536ZM251.938 79.014C252.165 79.0091 252.369 79.0379 252.609 79.0886C252.969 79.1633 252.919 79.2006 251.765 79.8239C244.086 83.95 236.419 91.0306 232.039 98.0237C230.91 99.8188 230.737 100.679 231.208 101.963C231.89 103.795 234.024 104.63 235.836 103.783C236.555 103.446 236.89 103.035 238.28 100.916C238.875 99.9933 239.868 98.6095 240.463 97.8616C241.977 95.9668 245.575 92.3768 247.56 90.7937C252.212 87.0664 257.435 84.1619 262.621 82.3918C263.812 81.9929 263.837 81.993 264.544 82.18C264.941 82.2797 265.276 82.3795 265.301 82.4044C265.313 82.4169 264.817 82.7285 264.184 83.1025C257.969 86.705 251.939 92.0528 247.56 97.8742C246.394 99.4075 244.967 101.738 244.768 102.399C244.074 104.792 246.22 107.148 248.639 106.65C249.83 106.401 250.289 105.989 251.579 104.007C254.768 99.1457 258.738 95.1067 264.222 91.18C266.914 89.2479 270.884 87.0914 274.271 85.7327L275.822 85.0969L276.814 85.3463C277.348 85.4959 277.807 85.6205 277.831 85.633C277.844 85.6579 277.31 86.0068 276.653 86.4057C270.338 90.2327 263.862 96.3907 259.929 102.287C258.316 104.693 258.056 105.503 258.428 106.824C258.986 108.732 261.219 109.804 262.968 109.006C263.601 108.719 264.383 108.009 264.668 107.46C264.78 107.248 265.251 106.5 265.735 105.777C269.048 100.754 274.531 95.6053 280.338 92.0651C282.856 90.5318 287.335 88.3254 287.93 88.3254C288.253 88.3254 303.165 92.2397 304.629 92.7009C317.73 96.8894 328.09 106.899 332.457 119.589C334.095 124.351 334.764 128.864 334.64 134.124C334.529 138.836 334.008 141.803 332.432 146.839C332.085 147.923 331.75 148.946 331.688 149.12L331.576 149.432L330.856 148.846C329.343 147.624 322.705 142.663 320.435 141.055C317.42 138.923 316.663 138.462 315.994 138.362C313.748 138.026 311.812 139.97 312.147 142.227C312.309 143.274 312.88 143.984 314.455 145.081C319.318 148.484 325.249 152.922 326.514 154.119C327.953 155.49 328.636 157.385 328.363 159.28C328.263 159.99 325.993 167.407 325.832 167.569C325.795 167.607 325.162 167.158 324.417 166.584C320.249 163.318 312.346 157.597 311.093 156.948C310.87 156.824 310.299 156.699 309.852 156.662C309.158 156.612 308.922 156.649 308.364 156.911C307.036 157.522 306.329 158.594 306.341 160.003C306.354 160.95 306.676 161.748 307.297 162.334C307.52 162.546 308.723 163.431 309.989 164.316C314.294 167.307 320.174 171.72 320.993 172.58C321.676 173.291 322.333 174.575 322.519 175.56C322.792 176.956 322.656 177.704 321.341 181.88C320.671 184.011 320.112 185.769 320.088 185.794C320.038 185.856 320.15 185.943 316.415 183.114C312.867 180.421 309.257 177.828 306.813 176.208C304.927 174.949 304.307 174.737 303.215 174.961C301.54 175.31 300.473 176.756 300.585 178.489C300.684 179.985 301.056 180.409 303.773 182.279C308.252 185.345 314.716 190.169 315.398 190.955C316.477 192.201 317.023 194.071 316.8 195.779C316.713 196.477 314.48 203.782 314.294 203.956C314.269 203.994 312.991 203.071 311.465 201.912C306.23 197.96 300.064 193.66 299.183 193.348C296.751 192.475 294.171 194.844 294.841 197.337C295.113 198.384 295.548 198.833 297.768 200.354C303.116 204.043 308.649 208.145 309.517 209.079C310.237 209.865 310.783 210.937 310.981 211.959C311.267 213.368 311.105 214.203 309.803 218.342C309.133 220.436 308.574 222.168 308.562 222.181C308.537 222.206 307.52 221.47 306.304 220.56C300.808 216.409 294.282 211.884 293.302 211.548C292.198 211.174 290.697 211.56 289.866 212.445C288.761 213.604 288.699 215.636 289.729 216.833C289.965 217.107 291.255 218.08 292.595 219.002C297.706 222.48 303.116 226.494 303.885 227.379C305.001 228.663 305.572 230.595 305.287 232.203C305.188 232.789 303.376 238.785 302.855 240.256C302.818 240.356 302.086 239.882 300.845 238.935C297.272 236.242 293.252 233.387 289.816 231.094C287.421 229.498 286.64 229.286 285.213 229.872C284.146 230.321 283.191 231.742 283.191 232.914C283.191 233.574 283.489 234.484 283.861 234.983C284.035 235.207 285.461 236.279 287.037 237.339C292.359 240.966 297.322 244.619 298.128 245.516C298.389 245.803 298.811 246.476 299.059 247C299.493 247.922 299.505 247.972 299.505 249.443V250.939L298.339 254.554C297.707 256.536 297.148 258.244 297.099 258.319C297.037 258.431 296.503 258.094 295.411 257.284C289.605 252.958 282.732 248.271 281.727 247.947C280.251 247.461 278.526 248.209 277.807 249.655C277.174 250.926 277.472 252.622 278.489 253.569C278.725 253.781 280.176 254.816 281.727 255.85C286.789 259.241 294.468 264.888 294.481 265.212C294.481 265.324 294.146 266.022 293.724 266.77C290.027 273.489 284.605 278.675 277.67 282.103C273.526 284.16 270.115 285.207 265.45 285.867C263.291 286.167 257.944 286.167 255.798 285.867C252.832 285.444 251.344 285.082 250.45 284.546C249.321 283.873 246.691 281.978 245.24 280.806C236.195 273.452 229.843 263.093 227.809 252.36C227.635 251.487 227.387 250.552 227.251 250.291C226.233 248.309 223.615 247.91 221.99 249.481C221.407 250.041 221.196 250.428 221.035 251.213C220.799 252.285 221.606 256.1 222.846 259.839C225.104 266.621 228.652 272.928 233.33 278.5C233.801 279.061 234.186 279.547 234.186 279.585C234.186 279.797 233.081 279.211 232.3 278.588C226.692 274.1 222.275 268.815 218.913 262.607C216.717 258.531 214.782 253.208 214.149 249.443C213.901 247.972 213.653 247.349 213.082 246.775C211.42 245.105 208.69 245.566 207.685 247.698C207.202 248.733 207.301 250.029 208.145 253.432C209.063 257.084 210.477 260.812 212.4 264.651C213.988 267.792 215.427 270.161 217.35 272.766C218.095 273.776 218.665 274.611 218.64 274.636C218.615 274.661 218.082 274.511 217.437 274.287C216.345 273.925 216.221 273.838 215.092 272.791C209.993 268.017 205.738 261.809 203.058 255.252C201.867 252.347 200.85 248.832 200.44 246.214C200.217 244.768 199.683 243.971 198.567 243.41C196.929 242.587 195.081 243.136 194.162 244.719C193.691 245.516 193.641 246.489 193.976 248.259C195.254 254.916 198.331 262.158 202.487 268.279C203.331 269.525 203.492 269.824 203.269 269.762C203.108 269.712 202.376 269.475 201.619 269.238L200.254 268.802L199.137 267.655C193.406 261.759 188.48 252.397 187.041 244.644C186.619 242.35 186.471 241.939 185.813 241.278C184.151 239.608 181.496 240.094 180.404 242.263C180.056 242.948 180.044 243.833 180.329 245.392C181.123 249.63 182.898 254.766 185.019 259.029C185.565 260.126 185.565 260.126 185.217 259.877C185.019 259.74 184.138 258.867 183.245 257.957C178.518 253.058 175.144 247.486 173.096 241.191C171.794 237.177 171.223 233.948 170.975 229.137L170.888 227.666L172.737 227.741C173.742 227.79 176.273 227.915 178.357 228.015C183.853 228.302 183.89 228.301 184.622 227.965C185.416 227.603 185.863 227.167 186.272 226.382C186.917 225.148 186.619 223.39 185.59 222.443C184.895 221.782 184.262 221.57 182.649 221.458C181.024 221.333 177.091 221.146 173.679 221.009C172.501 220.959 171.533 220.909 171.533 220.884C171.533 220.673 172.327 217.132 172.538 216.422C173.208 214.128 173.952 211.872 174.201 211.361C174.56 210.663 175.454 209.802 176.223 209.453C176.756 209.204 176.992 209.179 178.853 209.204C179.982 209.217 182.525 209.316 184.498 209.441C190.267 209.778 190.316 209.778 191.421 208.755C193.133 207.16 192.81 204.455 190.776 203.333C189.982 202.909 189.361 202.847 183.691 202.572C181.334 202.46 178.878 202.336 178.22 202.286L177.042 202.198L178.493 197.624C179.287 195.118 180.081 192.8 180.267 192.5C181.024 191.191 182.277 190.543 184.039 190.543C185.168 190.543 190.565 190.83 193.555 191.042C195.018 191.154 195.391 191.142 195.937 190.979C197.797 190.431 198.852 188.461 198.269 186.666C197.996 185.831 197.165 184.921 196.371 184.585C195.713 184.298 192.823 184.061 186.483 183.799C184.572 183.712 182.984 183.637 182.972 183.612C182.947 183.6 183.282 182.441 183.729 181.044C184.175 179.648 184.833 177.592 185.18 176.457C185.54 175.323 185.962 174.176 186.111 173.902C186.508 173.216 187.103 172.68 187.91 172.256C188.58 171.92 188.629 171.907 190.515 171.932C191.57 171.945 193.728 172.044 195.292 172.144C200.688 172.518 201.47 172.53 202.128 172.281C204.944 171.197 205.03 167.208 202.264 165.986C201.532 165.662 199.038 165.462 190.614 165.039C189.671 165.001 188.902 164.902 188.902 164.839C188.902 164.503 191.805 155.627 192.066 155.191C192.562 154.343 193.418 153.67 194.373 153.383C195.316 153.097 195.825 153.109 203.591 153.658C207.028 153.894 207.202 153.894 207.872 153.695C208.814 153.396 209.745 152.473 210.055 151.539C210.316 150.753 210.266 149.681 209.931 149.02C209.472 148.123 208.467 147.3 207.574 147.113C207.065 147.013 202.847 146.714 198.455 146.465C196.445 146.353 194.783 146.253 194.783 146.253C194.77 146.241 195.428 144.121 196.247 141.554C197.996 136.044 198.182 135.67 199.658 134.897C200.701 134.361 200.849 134.361 209.286 134.959C212.909 135.221 213.144 135.221 213.765 135.034C215.154 134.585 216.109 133.264 216.122 131.755C216.134 130.285 215.117 128.938 213.678 128.54C213.07 128.365 208.616 128.003 203.232 127.704C201.867 127.63 200.738 127.555 200.713 127.542C200.701 127.517 201.358 125.386 202.177 122.793C203.802 117.719 203.976 117.32 205.006 116.548C206.06 115.775 206.581 115.687 209.497 115.862C210.899 115.949 213.38 116.124 215.018 116.248C216.655 116.386 218.281 116.498 218.628 116.498C219.881 116.498 220.985 115.874 221.618 114.79C222.089 113.98 222.164 112.683 221.779 111.786C221.32 110.714 220.278 109.903 219.099 109.716C218.516 109.617 210.725 109.056 208.355 108.943C207.412 108.894 206.643 108.819 206.643 108.782C206.643 108.657 208.07 104.157 208.43 103.147C209.671 99.6816 211.792 95.8921 214.224 92.7882C215.65 90.9682 218.938 87.7397 220.787 86.3311C223.665 84.1371 226.891 82.2797 230.029 81.0207C231.617 80.3849 234.173 79.5372 233.987 79.7118C233.925 79.7741 233.268 80.2603 232.511 80.7838C227.263 84.511 222.065 89.8338 218.802 94.82C217.524 96.7646 217.387 97.1013 217.375 98.1733C217.375 98.9836 217.425 99.1955 217.735 99.7689C218.616 101.352 220.514 101.988 222.089 101.24C222.859 100.878 223.318 100.392 224.112 99.0708C225.861 96.2162 228.801 92.7508 231.655 90.1704C236.989 85.3463 242.758 81.9431 249.483 79.6619C250.83 79.1991 251.439 79.025 251.938 79.014ZM232.089 111.025C232.052 111.025 231.754 111.1 231.431 111.187C228.962 111.848 228.032 114.802 229.67 116.722C230.414 117.607 231.047 117.807 234.062 118.181C247.448 119.826 262.063 122.581 272.472 125.411C281.057 127.742 287.992 130.197 294.518 133.202C296.255 133.999 296.491 134.074 297.223 134.074C300.25 134.074 301.701 130.322 299.456 128.315C298.823 127.754 297.272 126.981 293.674 125.473C279.903 119.664 261.877 115.126 240.761 112.147C237.461 111.674 232.25 111 232.089 111.025ZM226.15 129.745C225.722 129.752 225.461 129.81 225.166 129.911C223.591 130.472 222.61 132.391 223.07 133.999C223.33 134.909 223.938 135.682 224.719 136.106C225.29 136.418 225.712 136.492 228.379 136.829C253.813 139.958 274.258 144.957 288.588 151.539C290.399 152.374 290.635 152.448 291.379 152.448C294.245 152.448 295.771 149.12 293.91 146.926C293.575 146.54 293.104 146.241 292.049 145.729C288.526 144.034 283.799 142.164 278.601 140.419C265.14 135.907 249.086 132.491 230.352 130.148C228.175 129.881 227.049 129.757 226.345 129.745C226.276 129.744 226.211 129.744 226.15 129.745ZM220.427 148.313C220.002 148.307 219.788 148.366 219.41 148.484C218.566 148.746 217.635 149.631 217.325 150.479C216.941 151.489 216.978 152.324 217.449 153.259C218.082 154.53 218.988 155.029 221.035 155.253C223.64 155.54 230.228 156.4 233.069 156.836C254.135 160.003 270.822 164.39 282.943 169.975C284.122 170.524 284.829 170.76 285.313 170.81C288.253 171.097 290.027 167.544 288.079 165.263C287.608 164.702 286.789 164.278 283.377 162.807C268.291 156.325 247.746 151.489 222.71 148.534C221.488 148.391 220.852 148.319 220.427 148.313ZM214.397 166.859C214.261 166.871 213.852 166.971 213.492 167.095C212.685 167.37 211.804 168.18 211.445 168.978C211.072 169.801 211.11 170.972 211.519 171.795C211.904 172.568 212.636 173.241 213.355 173.503C213.653 173.615 215.191 173.852 216.755 174.026C234.918 176.083 250.934 179.249 263.961 183.338C268.551 184.772 273.774 186.754 277.112 188.312C278.712 189.06 278.824 189.097 279.779 189.097C280.896 189.11 281.466 188.885 282.161 188.15C283.042 187.227 283.34 185.607 282.831 184.485C282.285 183.276 281.752 182.927 277.67 181.194C262.633 174.812 242.374 170.075 217.871 167.233C216.097 167.033 214.534 166.859 214.397 166.859ZM208.562 185.46C208.231 185.455 208.075 185.488 207.884 185.545C206.854 185.869 206.135 186.467 205.638 187.427C205.241 188.2 205.229 189.633 205.614 190.356C205.973 191.042 206.842 191.827 207.524 192.077C207.822 192.189 209.162 192.401 210.489 192.538C212.747 192.775 218.082 193.448 222.524 194.034C228.838 194.881 238.466 196.651 244.917 198.147C255.289 200.553 264.507 203.52 271.38 206.661C272.993 207.397 273.129 207.434 274.01 207.434C275.127 207.422 275.685 207.172 276.454 206.35C277.062 205.676 277.285 205.053 277.285 204.068C277.273 203.146 277.037 202.573 276.367 201.85C275.97 201.401 275.536 201.139 274.283 200.578C259.482 193.859 238.081 188.748 212.66 185.869C210.156 185.58 209.115 185.467 208.562 185.46ZM202.677 204.036C202.304 204.041 202.129 204.102 201.792 204.205C200.936 204.467 200.018 205.352 199.696 206.225C199.361 207.085 199.41 208.182 199.795 208.93C200.13 209.578 200.874 210.301 201.482 210.55C201.768 210.675 203.306 210.899 205.39 211.124C230.774 213.866 251.356 218.591 265.723 224.998C266.591 225.384 267.546 225.734 267.844 225.771C269.072 225.946 270.574 225.098 271.182 223.901C271.74 222.804 271.566 221.271 270.772 220.298C270.276 219.688 269.78 219.413 267.125 218.279C252.014 211.785 231.121 207.023 205.862 204.318C203.964 204.114 203.157 204.029 202.677 204.036ZM196.828 222.628C196.325 222.632 196.016 222.681 195.788 222.767C194.547 223.228 193.741 224.337 193.641 225.709C193.567 226.768 193.815 227.516 194.51 228.264C195.267 229.087 195.813 229.249 198.765 229.548C223.95 232.103 244.52 236.666 259.259 242.974C261.393 243.896 261.79 244.021 262.423 244.021C263.775 244.021 265.028 243.148 265.512 241.864C265.847 240.979 265.735 239.745 265.251 238.96C264.743 238.124 264.11 237.725 261.455 236.603C246.84 230.371 227.598 225.946 203.318 223.203C199.953 222.821 198.124 222.644 197.056 222.629C196.976 222.627 196.9 222.627 196.828 222.628Z" fill="#f1f0f1"/>
<path d="M163.411 351.262C162.653 351.262 161.872 351.321 161.324 351.439C158.523 352.049 155.274 353.78 152.099 356.333C148.726 359.06 143.397 364.85 138.492 371.138C129.217 383.017 117.963 400.736 105.887 422.477C103.435 426.885 97.1975 438.552 94.7076 443.371C94.4212 443.932 94.1597 444.38 94.1224 444.355C94.0726 444.293 95.2055 441.142 96.3011 438.291C99.3636 430.359 101.978 424.407 107.717 412.329C111.054 405.318 116.93 392.829 118.835 388.733C123.901 377.8 126.952 369.32 127.786 363.891C128.072 362.011 128.072 359.334 127.773 358.039C127.151 355.299 125.433 353.544 122.657 352.809C121.785 352.585 119.768 352.298 119.669 352.398C119.631 352.423 119.669 352.784 119.743 353.183C120.378 356.607 116.706 366.917 109.921 380.788C106.734 387.313 103.273 393.788 98.4674 402.268C93.027 411.855 90.1263 417.222 86.7525 423.971C80.4904 436.51 78.0253 443.658 78.0004 449.311C77.988 451.527 78.2494 452.872 78.9839 454.266C80.2413 456.645 82.9055 458.326 87.2379 459.459C88.4704 459.783 91.3338 460.331 91.7695 460.331C91.8442 460.331 92.031 459.969 92.1804 459.534C94.2096 453.731 99.7994 442.985 106.323 432.376C109.149 427.769 115.174 418.729 115.311 418.891C115.324 418.916 115.286 419.738 115.224 420.734C115.05 423.523 115.05 431.853 115.224 433.87C115.934 441.777 117.478 447.817 119.83 451.913C122.333 456.234 125.246 458.811 128.632 459.72C129.939 460.069 132.516 460.094 133.985 459.783C136.625 459.21 138.915 458.189 141.692 456.333C143.161 455.362 146.086 453.034 146.659 452.399C146.871 452.15 146.858 452.15 146.049 451.938C143.186 451.241 139.675 448.925 136.538 445.675C132.666 441.665 130.276 436.859 128.943 430.371C128.284 427.196 128.271 426.823 128.259 417.994C128.259 410.623 128.234 409.565 128.035 408.344C127.736 406.501 127.524 405.592 127.051 404.086L126.665 402.816L128.022 401.035C133.625 393.663 140.783 384.773 144.854 380.103C147.306 377.277 149.697 374.737 152.249 372.221C156.009 368.511 157.913 366.942 161.275 364.8C165.408 362.16 169.342 360.604 171.869 360.591C172.429 360.591 172.641 360.542 172.641 360.429C172.641 360.106 171.906 357.653 171.545 356.781C171.097 355.71 170.412 354.602 169.79 353.955C168.856 352.958 166.852 351.825 165.358 351.439C164.904 351.321 164.169 351.262 163.411 351.262ZM216.822 357.617C216.378 357.607 216.264 357.684 215.89 357.964C215.044 358.599 213.101 361.339 212.23 363.144C210.599 366.494 209.317 371.35 209.528 373.392C209.703 375.085 211.247 376.978 213.786 378.622C214.546 379.12 215.268 379.593 215.392 379.68C215.629 379.842 215.616 379.904 214.969 381.71C211.732 390.837 208.134 399.329 203.839 407.908C197.465 420.659 192.236 428.529 186.46 434.095C182.949 437.481 180.584 438.341 179.339 436.66C178.442 435.452 179.003 431.417 180.82 425.976C182.613 420.597 185.277 414.495 189.908 405.244C193.705 397.648 196.008 393.315 198.262 389.542C199.096 388.135 202.171 383.465 202.669 382.855L202.943 382.507L202.632 382.183C201.81 381.299 198.996 380.029 196.457 379.406C194.29 378.871 191.838 378.447 191.701 378.584C191.614 378.684 189.448 382.108 188.601 383.503C188.501 383.665 188.414 383.64 188.003 383.341C184.804 381 182.414 379.78 179.55 379.07C177.907 378.647 174.67 378.522 173.313 378.808C170.674 379.369 168.072 381.137 165.084 384.399C161.499 388.297 157.465 393.676 154.029 399.13C150.232 405.144 146.522 412.578 144.854 417.484C143.273 422.128 142.638 425.54 142.638 429.313C142.638 434.269 143.709 437.407 146.273 439.934C147.157 440.806 148.813 441.977 149.759 442.4C151.489 443.159 154.266 442.624 156.706 441.055C159.146 439.486 162.532 436.311 164.524 433.746C165.881 431.99 167.562 429.512 169.155 426.897C170.139 425.291 170.288 425.104 170.226 425.528C169.292 431.716 170.437 436.523 173.649 439.959C176.363 442.861 178.754 443.433 182.127 442.001C185.788 440.457 189.946 436.51 195.411 429.413C196.594 427.869 201.2 420.983 202.408 418.928C205.993 412.889 213.5 397.187 219.077 384.113L220.111 381.672L221.679 382.208C225.314 383.428 228.551 383.976 234.104 384.275L236.88 384.424L236.569 384.935C234.602 388.309 229.709 397.735 227.717 401.994C223.522 410.996 220.073 419.862 219.152 423.984C218.069 428.84 218.629 434.505 220.509 437.681C221.617 439.573 223.572 441.466 225.24 442.275C229.286 444.243 235.013 440.794 241.959 432.202L243.416 430.409L243.453 430.957C243.515 432.003 243.839 433.87 244.163 434.966C244.91 437.556 246.429 439.673 248.707 441.267C250.288 442.388 250.736 442.562 252.019 442.624C254.981 442.761 258.044 441.155 262.003 437.369C264.592 434.891 267.418 431.118 270.307 426.312C270.705 425.64 271.041 425.104 271.054 425.129C271.066 425.142 271.004 425.739 270.917 426.462C270.692 428.305 270.705 431.305 270.929 432.6C271.577 436.286 273.332 439.212 276.282 441.491C279.108 443.657 282.706 442.898 287.362 439.138C289.28 437.606 292.081 434.63 294.496 431.592C295.367 430.496 295.517 430.359 295.566 430.596C295.604 430.757 295.691 431.218 295.778 431.629C296.313 434.468 297.82 437.519 299.55 439.225C304.754 444.417 313.905 443.583 322.657 437.133C325.258 435.203 328.383 432.289 330.387 429.886C332.753 427.072 335.429 423.112 336.6 420.709C336.861 420.173 337.185 419.588 337.322 419.401C337.459 419.215 337.795 418.592 338.069 418.032L338.579 417.023L339.301 416.936C341.467 416.699 343.596 416.114 345.09 415.367C345.825 414.993 347.879 413.686 348.315 413.312C348.663 413.001 348.663 413.126 348.34 413.848C347.642 415.429 345.439 421.132 344.966 422.602C343.621 426.773 342.986 430.571 343.111 433.721C343.186 435.701 343.41 436.51 344.343 438.104C345.327 439.785 346.46 440.856 348.078 441.64C349.273 442.213 350.568 442.649 351.128 442.649C351.302 442.649 351.9 441.503 353.967 437.195C358.162 428.429 361.748 420.833 362.806 418.48L363.789 416.288L364.599 416.649C365.034 416.849 365.819 417.123 366.341 417.26C366.852 417.397 367.325 417.546 367.375 417.596C367.549 417.77 367.723 419.127 367.723 420.36C367.723 422.178 367.412 423.374 366.155 426.599C365.794 427.52 365.383 428.74 365.246 429.288C364.487 432.227 364.711 435.489 365.806 437.892C366.889 440.271 368.682 441.914 370.773 442.462C371.184 442.562 372.018 442.649 372.641 442.649C377.571 442.649 382.426 438.839 387.692 430.845L388.701 429.313L388.8 429.973C389.261 432.999 389.597 434.306 390.381 436C391.925 439.349 394.178 441.391 397.316 442.3C398.162 442.549 398.573 442.587 400.528 442.587C402.42 442.587 402.968 442.537 404.051 442.3C412.18 440.482 421.181 433.347 428.389 423.025C429.921 420.821 431.352 418.43 431.29 418.181C431.253 418.032 431.041 417.509 430.805 417.011L430.394 416.102L429.473 417.322C424.804 423.573 419.326 429.612 414.844 433.472C410.051 437.606 405.072 439.922 401.835 439.523C400.167 439.324 399.034 438.627 398.411 437.432C397.54 435.751 397.403 432.326 398.05 428.603C398.548 425.714 400.005 420.933 401.399 417.621C402.631 414.682 404.984 410.2 406.379 408.12L406.79 407.522L407.437 408.431C408.284 409.589 410.388 411.756 411.371 412.466C412.342 413.163 413.463 413.686 414.72 414.022C415.517 414.246 416.077 414.296 417.521 414.309C419.177 414.321 419.388 414.296 420.16 413.997C424.729 412.229 429.672 405.904 433.008 397.548C434.377 394.137 435 391.509 435 389.231C435 387.873 434.963 387.55 434.664 386.678C433.979 384.611 432.871 383.216 430.842 381.884C428.165 380.128 426.024 379.381 421.443 378.647L419.899 378.385L418.368 379.157C416.152 380.265 415.106 380.875 412.728 382.457C404.972 387.587 398.585 394.884 394.44 403.301C391.489 409.278 389.771 415.255 389.074 421.854C388.962 422.913 388.813 423.909 388.75 424.071C388.613 424.407 386.198 427.881 384.493 430.197C382.376 433.049 380.422 435.427 378.915 436.946C377.322 438.565 376.662 438.976 376.04 438.764C375.044 438.415 375.093 437.631 376.363 433.186C378.928 424.32 378.791 422.452 375.318 418.144C374.708 417.384 374.633 417.123 375.019 417.123C375.417 417.123 377.048 416.251 378.056 415.504C380.135 413.972 383.372 410.424 385.787 407.037C391.29 399.342 394.813 390.364 394.44 385.059C394.34 383.69 394.091 382.581 393.68 381.722C392.51 379.257 389.174 377.899 386.397 378.759C382.588 379.954 376.936 385.782 371.271 394.336C369.18 397.511 366.528 401.981 363.615 407.248C363.042 408.294 362.544 409.129 362.532 409.104C362.457 409.029 368.396 397.461 369.591 395.332C373.998 387.487 383.086 372.358 387.729 365.174L389.149 362.97L388.676 362.534C387.705 361.637 385.19 360.517 382.812 359.906C381.517 359.583 378.056 358.923 378.007 358.998C377.882 359.147 375.069 363.742 373.699 366.008C366.628 377.738 360.291 389.181 354.751 400.188L352.411 404.858L351.054 406.302C348.601 408.892 345.588 411.295 343.385 412.391C342.152 413.001 340.335 413.599 340.335 413.387C340.335 413.337 340.608 412.565 340.945 411.681C342.351 407.983 343.049 405.605 343.684 402.305C344.206 399.59 344.356 398.183 344.356 395.892C344.356 393.589 344.219 392.555 343.621 390.227C342.351 385.346 340.422 382.507 336.911 380.39C334.11 378.696 331.097 377.949 329.143 378.447C327.412 378.896 326.553 379.593 325.084 381.809C323.03 384.897 321.897 387.587 321.113 391.248L321.038 391.596L320.316 391.049C319.195 390.202 318.237 389.617 316.88 388.969C315.623 388.371 313.319 387.487 313.021 387.487C312.722 387.487 309.995 390.401 307.954 392.904C302.015 400.176 298.031 408.905 296.214 418.617C295.977 419.887 295.716 421.531 295.641 422.29C295.554 423.037 295.442 423.784 295.392 423.921C295.243 424.295 293.263 427.047 291.682 429.077C288.284 433.435 285.47 436.174 283.391 437.12C282.109 437.706 280.826 437.531 280.179 436.66C278.984 435.066 280.191 429.176 283.366 421.132C286.341 413.561 293.562 398.918 298.33 390.775C299.638 388.533 302.177 384.586 303.073 383.391L303.771 382.457L303.248 382.009C302.625 381.473 300.559 380.415 299.251 379.979C298.081 379.58 294.048 378.572 293.189 378.46L292.541 378.373L291.919 379.356C291.57 379.892 290.861 381.062 290.325 381.971C289.79 382.88 289.329 383.615 289.292 383.615C289.255 383.627 288.495 383.117 287.611 382.494C285.146 380.763 282.395 379.506 279.893 378.945C278.673 378.671 275.423 378.572 274.303 378.771C272.074 379.157 269.871 380.34 267.966 382.133C262.849 386.977 255.977 396.465 251.135 405.356C247.835 411.395 245.669 416.6 244.474 421.356C244.126 422.763 244.013 423.012 243.329 424.034C238.822 430.695 234.066 435.912 231.352 437.183C229.759 437.93 228.514 437.668 227.916 436.485C226.796 434.256 228.676 426.947 232.834 417.372C235.374 411.519 241.275 399.615 244.574 393.713C246.553 390.152 249.192 385.931 250.786 383.739C251.222 383.142 251.57 382.619 251.57 382.569C251.57 382.37 250.288 380.888 249.304 379.954C247.151 377.887 244.287 376.38 241.872 376.044C241.088 375.945 240.789 375.957 239.943 376.156C236.008 377.09 231.315 377.115 227.356 376.219C225.638 375.833 223.061 375.023 223.061 374.874C223.061 374.811 223.572 373.491 224.194 371.947C225.638 368.374 225.999 367.291 226.173 366.095C226.422 364.364 226.049 363.069 224.816 361.438C224.007 360.367 223.024 359.608 221.505 358.848C220.036 358.126 218.766 357.752 217.397 357.653C217.154 357.634 216.969 357.621 216.822 357.617ZM335.131 383.465L336.463 384.872C337.185 385.644 337.994 386.566 338.256 386.915C341.094 390.688 340.982 397.1 337.92 406.302C337.26 408.294 335.927 411.743 335.753 411.918C335.616 412.055 333.687 410.585 332.392 409.353C330.998 408.02 330.263 407.062 329.566 405.667C328.458 403.451 328.047 401.483 328.172 398.881C328.408 394.174 329.964 390.401 333.886 385.134L335.131 383.465ZM384.831 383.78C384.847 383.779 384.858 383.782 384.866 383.789C384.879 383.814 384.617 384.698 384.269 385.757C380.447 397.387 375.566 405.667 370.151 409.714C369.678 410.075 369.018 410.511 368.707 410.698C368.072 411.059 366.105 411.806 366.018 411.719C365.943 411.656 369.429 405.381 371.558 401.757C374.471 396.789 376.351 393.85 379.214 389.853C380.646 387.861 381.605 386.678 382.787 385.445C383.546 384.64 384.6 383.791 384.831 383.78ZM284.579 386.278C284.784 386.279 285.005 386.284 285.246 386.292C286.204 386.317 287.151 386.392 287.337 386.479L287.699 386.616L287.449 387.027C286.976 387.799 284.375 392.817 282.271 397.013C280.042 401.433 278.648 404.409 276.88 408.593C276.307 409.963 275.56 411.694 275.237 412.453C274.639 413.86 273.344 415.84 268.464 422.85C262.551 431.33 256.799 438.017 254.384 439.225C252.678 440.084 251.894 439.138 252.193 436.56C252.84 430.857 256.774 420.011 261.99 409.589C265.177 403.214 267.779 398.881 270.792 394.896C272.112 393.141 274.95 390.239 276.083 389.48C277.116 388.795 279.407 387.624 280.714 387.114C282.457 386.449 283.142 386.271 284.579 386.278ZM184.134 386.373C184.827 386.369 185.515 386.411 186.049 386.504C186.485 386.578 186.833 386.666 186.833 386.69C186.833 386.715 186.136 388.073 185.277 389.691C180.746 398.283 177.446 405.194 174.62 412.055C173.986 413.599 172.803 415.429 167.873 422.539C162.258 430.608 156.93 436.934 154.141 438.814C150.842 441.043 150.456 437.942 152.996 429.574C155.448 421.468 160.951 409.253 165.694 401.371C168.782 396.253 171.944 392.244 174.546 390.164C176.089 388.919 179.687 387.164 181.766 386.616C182.348 386.462 183.244 386.379 184.134 386.373ZM423.708 390.413C423.714 390.411 423.719 390.412 423.721 390.414C423.746 390.426 423.372 391.459 422.887 392.692C420.098 399.889 418.031 403.973 415.915 406.514C415.218 407.348 414.571 407.846 413.936 408.02C413.487 408.157 412.155 407.921 411.06 407.51C410.263 407.211 408.993 406.352 408.508 405.779C408.109 405.318 408.06 405.418 409.591 403.451C412.753 399.391 416.562 395.531 420.011 392.892C420.988 392.156 423.495 390.462 423.708 390.413ZM320.618 397.727C320.741 397.735 320.766 397.955 320.777 398.358C320.814 399.678 321.723 402.766 322.657 404.733C324.848 409.39 327.773 412.391 333.301 415.666L333.886 416.002L333.077 417.546C327.313 428.479 319.743 436.236 312.759 438.366C311.751 438.677 311.452 438.714 309.647 438.714C307.381 438.727 306.958 438.627 306.186 437.93C304.02 435.987 304.107 430.16 306.422 422.34C308.738 414.458 313.855 405.256 319.482 398.806C320.14 398.057 320.46 397.717 320.618 397.727ZM288.512 449.424C278.956 449.424 271.383 456.823 271.383 466.203C271.383 475.761 279.089 483.116 289.084 483.116C294.016 483.116 298.199 481.398 301.413 478.095C304.408 474.968 306.081 470.916 306.081 466.732V465.939H284.813V471.577H298.287C296.57 475.188 293.047 477.302 288.732 477.302C282.347 477.302 277.459 472.546 277.459 466.292C277.459 463.473 278.648 460.39 280.497 458.408C282.391 456.382 285.253 455.237 288.379 455.237C292.166 455.237 295.337 456.779 297.318 459.553H304.408C302.294 453.696 295.601 449.424 288.512 449.424ZM414.711 449.996V482.543H420.568V449.996H414.711ZM321.316 457.571C314.227 457.571 308.415 463.341 308.415 470.344C308.415 477.39 314.227 483.116 321.36 483.116C328.45 483.116 334.35 477.39 334.35 470.52C334.35 463.253 328.67 457.571 321.316 457.571ZM345.095 457.571C340.515 457.571 336.992 460.83 336.992 465.014C336.992 468.582 338.886 470.608 343.774 472.237C345.975 472.986 346.195 473.074 346.812 473.47C347.516 473.911 347.913 474.572 347.913 475.364C347.913 476.73 346.812 477.743 345.271 477.743C343.553 477.743 342.585 476.862 342.012 474.792H336.112C336.376 477.17 336.772 478.447 337.741 479.724C339.326 481.838 342.1 483.116 345.051 483.116C349.938 483.116 353.769 479.46 353.769 474.792C353.769 471.092 351.92 469.154 346.988 467.657C344.566 466.908 344.566 466.908 343.994 466.644C343.289 466.292 342.849 465.719 342.849 464.97C342.849 463.825 343.818 462.945 345.095 462.945C346.328 462.945 347.12 463.605 347.384 464.882H353.109C353.021 462.812 352.536 461.579 351.347 460.258C349.806 458.54 347.516 457.571 345.095 457.571ZM370.854 457.571C367.507 457.571 364.689 458.76 362.796 461.007V458.144H357.424V490.691H363.28V480.253C365.526 482.235 367.772 483.116 370.766 483.116C377.811 483.116 382.963 477.655 382.963 470.255C382.963 462.9 377.855 457.571 370.854 457.571ZM398.287 457.571C391.109 457.571 385.429 463.253 385.429 470.432C385.429 477.566 391.198 483.116 398.639 483.116C402.646 483.116 405.773 481.662 408.327 478.712C409.251 477.566 409.868 476.553 410.264 475.32H403.879C402.382 477.082 400.929 477.743 398.507 477.743C395.029 477.743 392.474 475.893 391.77 472.942H410.66C410.837 472.061 410.881 471.533 410.881 470.652C410.881 463.121 405.552 457.571 398.287 457.571ZM321.36 462.945C325.279 462.945 328.45 466.248 328.45 470.344C328.45 474.439 325.28 477.743 321.405 477.743C317.442 477.743 314.315 474.439 314.315 470.255C314.315 466.248 317.485 462.945 321.36 462.945ZM370.061 462.945C374.024 462.945 377.063 466.159 377.063 470.388C377.063 474.528 374.024 477.743 370.15 477.743C366.01 477.743 362.928 474.572 362.928 470.299C362.928 466.115 366.01 462.945 370.061 462.945ZM398.375 462.945C401.986 462.945 404.364 464.662 405.112 467.789H391.594C392.519 464.618 394.896 462.945 398.375 462.945Z" fill="#f1f0f1"/>
</svg>
