<svg width="512" height="512" viewBox="0 0 512 512" fill="none" xmlns="http://www.w3.org/2000/svg">
<path d="M250.566 7.00021C248.146 6.99816 246.292 7.01105 245.576 7.04381C244.865 7.08125 242.282 7.24971 239.867 7.39947C186.241 10.9001 135.329 31.7352 94.4683 66.8911C84.3608 75.5958 73.9536 86.1727 65.5119 96.3189C27.3091 142.22 7.11275 199.353 8.02991 258.901C8.16095 268.523 8.57276 275.15 9.5648 283.798C15.4609 335.727 37.3792 383.931 72.8867 422.98C76.2184 426.65 84.5852 435.055 88.2539 438.424C115.6 463.528 148.263 482.285 183.396 493.068L185.773 493.798V460.158V426.537L184.519 425.882C182.535 424.834 178.511 422.1 176.882 420.696C171.192 415.754 167.973 407.799 167.28 397.054L167.149 395.088L164.903 394.32C157.191 391.7 146.672 385.971 140.514 381.01C131.96 374.14 124.042 364.032 119.119 353.717C115.282 345.667 112.999 337.974 111.745 328.82C111.52 327.303 111.37 324.252 111.277 319.366L111.108 312.159L112.119 306.543C113.279 299.991 113.804 297.875 115.563 292.297C118.183 284.06 136.77 225.617 137.388 223.707C137.725 222.622 144.763 200.551 152.999 174.662C168.778 125.035 168.665 125.372 169.975 122.283C173.532 113.972 178.361 106.727 184.65 100.269C188.862 95.9444 192.53 92.9118 197.322 89.8043C203.873 85.5362 209.17 83.1213 217.687 80.4818C224.687 78.3103 228.281 77.8049 236.592 77.8049C241.908 77.7862 242.881 77.8424 245.276 78.2168C246.98 78.4976 258.51 81.2493 276.722 85.7607C292.539 89.6732 311.069 94.2597 317.92 95.9633C324.77 97.648 331.509 99.3888 332.894 99.8006C347.026 104.069 360.203 112.249 369.712 122.676C389.197 144.017 395.673 172.846 387.157 200.214C386.389 202.685 374.297 240.705 372.108 247.575C371.452 249.634 361.906 279.642 350.882 314.255L330.854 377.21L327.372 383.687C325.444 387.263 323.367 390.895 322.73 391.793C313.315 405.14 299.408 414.968 283.405 419.611C280.784 420.36 276.217 421.371 274.046 421.689C273.334 421.782 273.091 421.913 272.866 422.306C269.179 429.12 265.66 434.119 262.647 436.833C261.018 438.312 258.529 439.941 256.882 440.633C255.459 441.213 252.202 441.981 251.06 441.981C250.724 441.981 250.124 442.037 249.75 442.093L249.039 442.224V473.112V504L258.641 503.888C272.604 503.738 282.319 502.97 294.897 501.024C356.029 491.589 411.808 459.222 450.647 410.625C479.884 374.047 498.134 330.261 503.412 283.985C505.19 268.298 505.49 251.6 504.236 235.501C500.23 183.497 479.435 133.496 445.2 93.6044C437.264 84.3568 427.4 74.4914 418.34 66.7413C385.828 38.9049 347.232 20.054 305.716 11.7049C295.122 9.5896 284.602 8.20431 272.155 7.28704C270.176 7.14664 257.826 7.00635 250.566 7.00021ZM235.511 87.8596C234.238 87.8657 233.017 87.9135 231.912 88.0071C223.358 88.7372 213.026 92.2004 204.959 97.0675C193.11 104.181 183.976 114.814 178.96 127.338C177.987 129.771 173.045 144.972 173.045 145.552C173.045 145.777 173.326 145.833 174.599 145.833C176.115 145.833 176.133 145.833 175.647 146.17C173.794 147.424 172.259 149.202 171.342 151.168C170.855 152.198 164.061 173.239 164.061 173.707C164.061 173.838 164.51 173.913 165.24 173.913C165.876 173.913 166.531 174.006 166.681 174.1C166.831 174.194 166.868 174.287 166.756 174.287C166.419 174.287 164.098 176.496 163.48 177.395C163.162 177.863 162.676 178.705 162.395 179.304C161.908 180.296 154.983 201.787 155.114 201.899C155.151 201.918 155.787 202.011 156.536 202.105L157.884 202.273L156.873 203.059C155.694 203.977 154.383 205.549 153.597 207.047C153.298 207.608 151.52 212.925 149.648 218.84C147.757 224.756 146.185 229.698 146.148 229.829C146.092 229.96 146.541 230.091 147.495 230.166L148.937 230.297L148.207 230.877C146.878 231.944 145.53 233.535 144.837 234.846C144.388 235.707 142.947 239.938 140.663 247.107L137.163 258.059L138.455 258.171C139.147 258.227 139.765 258.302 139.803 258.358C139.859 258.414 139.428 258.826 138.866 259.275C137.743 260.174 136.396 261.859 135.703 263.225C135.31 263.974 128.31 285.633 128.31 286.063C128.31 286.157 128.965 286.232 129.77 286.232L131.211 286.25L130.462 286.831C127.954 288.815 126.943 290.444 125.502 294.787C123.63 300.496 123.013 302.967 121.927 309.257C121.366 312.608 121.347 312.889 121.366 317.775C121.384 320.732 121.515 324.027 121.684 325.731C123.125 340.164 129.133 354.073 138.679 365.024C140.813 367.476 145.287 371.8 147.215 373.298C150.771 376.068 156.218 379.344 161.066 381.666C164.959 383.519 166.363 384.062 172.203 385.99C175.516 387.094 177.612 387.881 177.593 388.012C177.388 389.041 177.35 395.331 177.519 397.334C177.949 402.239 178.66 405.159 180.289 408.472C181.225 410.401 181.506 410.794 183.04 412.329C183.995 413.265 185.53 414.538 186.522 415.193C188.244 416.335 195.151 419.892 195.637 419.892C195.843 419.892 195.881 427.211 195.881 458.267C195.881 479.365 195.937 496.643 195.993 496.643C196.068 496.643 197.528 496.98 199.231 497.373C202.862 498.234 208.59 499.432 212.39 500.106C213.868 500.368 215.253 500.612 215.497 500.668L215.909 500.761V477.455C215.909 464.632 215.946 454.149 216.002 454.149C216.058 454.149 217.106 454.448 218.323 454.804C219.54 455.16 220.7 455.459 220.925 455.459C221.767 455.459 230.04 460.495 231.781 462.068L232.193 462.442V482.641C232.193 493.742 232.249 502.821 232.343 502.821C232.418 502.821 233.69 502.952 235.188 503.101C236.685 503.251 238.089 503.382 238.332 503.382H238.744V467.328V431.273L239.455 431.386C242.6 431.872 249.376 432.041 251.304 431.685C252.951 431.386 254.486 430.506 256.002 429.008C258.678 426.406 261.786 421.67 264.855 415.511L266.465 412.291L268.749 412.067C283.423 410.681 297.331 404.148 307.7 393.777C312.604 388.873 316.161 383.912 319.343 377.528C320.016 376.181 320.671 374.945 320.784 374.814C321.027 374.515 321.008 374.571 324.434 363.732C325.987 358.846 327.335 354.335 327.447 353.736C327.859 351.489 327.597 348.307 326.829 346.173L326.549 345.387L328.027 346.51C329.038 347.277 329.562 347.577 329.618 347.408C330.03 346.304 335.777 327.996 336.001 327.135C336.525 324.888 336.226 320.676 335.402 318.524C335.309 318.28 335.739 318.524 336.638 319.235C337.386 319.815 338.06 320.302 338.135 320.302C338.36 320.302 344.686 299.991 344.892 298.587C345.21 296.434 344.817 293.046 344.031 291.211C343.937 290.987 344.462 291.305 345.341 291.998C346.165 292.615 346.839 293.121 346.876 293.083C347.026 292.952 353.165 273.428 353.39 272.379C353.895 270.133 353.671 266.389 352.922 264.442C352.81 264.142 352.753 263.88 352.791 263.824C352.828 263.787 353.446 264.217 354.157 264.798C354.869 265.359 355.505 265.752 355.561 265.677C355.636 265.602 357.133 260.997 358.893 255.438C362.505 244.093 362.693 243.232 362.3 240.162C362.169 239.208 361.925 237.991 361.738 237.429C361.551 236.886 361.438 236.437 361.495 236.437C361.551 236.437 362.169 236.905 362.88 237.485C363.591 238.066 364.209 238.496 364.246 238.459C364.377 238.328 370.516 218.859 370.779 217.717C371.209 215.883 371.153 212.738 370.647 210.753C370.404 209.874 370.311 209.181 370.423 209.237C370.517 209.312 371.134 209.761 371.771 210.285C372.594 210.922 372.969 211.128 373.044 210.94C373.38 210.042 377.723 196.208 378.116 194.823C380.643 185.837 381.279 175.41 379.875 166.181C376.637 144.991 363.535 126.289 344.499 115.713C340.138 113.298 334.429 110.902 329.806 109.516C327.878 108.955 249.226 89.3925 246.605 88.8309C243.615 88.1991 239.33 87.8412 235.511 87.8596ZM249.617 95.1587C249.959 95.1512 250.267 95.1945 250.63 95.2706C251.173 95.3829 251.098 95.4389 249.357 96.3749C237.771 102.571 226.203 113.204 219.596 123.706C217.892 126.402 217.631 127.693 218.342 129.621C219.371 132.373 222.591 133.628 225.324 132.355C226.409 131.849 226.915 131.231 229.011 128.049C229.909 126.664 231.407 124.586 232.305 123.463C234.589 120.617 240.017 115.226 243.012 112.848C250.031 107.251 257.911 102.889 265.735 100.231C267.532 99.6321 267.569 99.6323 268.636 99.9131C269.235 100.063 269.74 100.213 269.778 100.25C269.797 100.269 269.048 100.737 268.093 101.298C258.716 106.708 249.619 114.739 243.012 123.481C241.252 125.784 239.1 129.284 238.8 130.277C237.752 133.871 240.99 137.409 244.64 136.66C246.437 136.286 247.13 135.668 249.076 132.692C253.887 125.391 259.876 119.325 268.15 113.429C272.211 110.527 278.201 107.289 283.311 105.248L285.651 104.293L287.148 104.668C287.953 104.893 288.646 105.08 288.683 105.099C288.702 105.136 287.897 105.66 286.905 106.259C277.377 112.006 267.607 121.254 261.673 130.108C259.24 133.721 258.847 134.938 259.409 136.922C260.251 139.786 263.62 141.396 266.259 140.198C267.214 139.768 268.393 138.701 268.823 137.877C268.992 137.559 269.703 136.436 270.433 135.35C275.431 127.806 283.704 120.074 292.464 114.758C296.264 112.455 303.021 109.142 303.919 109.142C304.406 109.142 326.904 115.02 329.113 115.713C348.879 122.002 364.508 137.034 371.097 156.091C373.568 163.242 374.578 170.019 374.391 177.919C374.223 184.995 373.436 189.45 371.059 197.013C370.535 198.642 370.03 200.177 369.936 200.439L369.768 200.907L368.682 200.027C366.399 198.192 356.385 190.742 352.959 188.327C348.411 185.126 347.269 184.433 346.258 184.284C342.871 183.778 339.951 186.698 340.456 190.087C340.699 191.659 341.56 192.726 343.937 194.373C351.275 199.484 360.222 206.148 362.131 207.945C364.302 210.005 365.332 212.85 364.92 215.695C364.77 216.762 361.345 227.901 361.101 228.144C361.045 228.2 360.091 227.526 358.968 226.665C352.679 221.761 340.756 213.168 338.865 212.195C338.528 212.007 337.667 211.82 336.993 211.764C335.945 211.689 335.589 211.746 334.747 212.139C332.744 213.056 331.678 214.666 331.696 216.781C331.715 218.204 332.201 219.402 333.137 220.282C333.474 220.6 335.29 221.929 337.199 223.258C343.694 227.751 352.566 234.378 353.802 235.67C354.831 236.737 355.823 238.665 356.104 240.143C356.516 242.24 356.31 243.363 354.326 249.635C353.315 252.836 352.473 255.475 352.435 255.512C352.36 255.606 352.529 255.737 346.895 251.488C341.542 247.444 336.095 243.55 332.407 241.117C329.562 239.226 328.626 238.908 326.979 239.245C324.452 239.769 322.843 241.941 323.011 244.543C323.161 246.789 323.722 247.426 327.821 250.233C334.579 254.839 344.33 262.083 345.36 263.263C346.988 265.135 347.812 267.943 347.475 270.507C347.344 271.555 343.975 282.525 343.694 282.787C343.657 282.844 341.729 281.458 339.427 279.717C331.528 273.783 322.225 267.325 320.896 266.857C317.227 265.546 313.334 269.103 314.345 272.847C314.757 274.42 315.412 275.094 318.762 277.377C326.829 282.918 335.178 289.077 336.488 290.481C337.574 291.66 338.397 293.27 338.696 294.805C339.127 296.921 338.884 298.175 336.918 304.39C335.908 307.535 335.065 310.137 335.046 310.156C335.009 310.193 333.474 309.089 331.64 307.722C323.348 301.488 313.502 294.693 312.024 294.188C310.358 293.626 308.093 294.206 306.839 295.535C305.173 297.276 305.079 300.328 306.633 302.125C306.989 302.537 308.935 303.997 310.957 305.382C318.669 310.605 326.83 316.633 327.99 317.962C329.675 319.89 330.536 322.792 330.105 325.207C329.955 326.086 327.223 335.091 326.437 337.299C326.38 337.449 325.276 336.738 323.404 335.315C318.013 331.272 311.949 326.985 306.764 323.54C303.152 321.144 301.972 320.826 299.82 321.706C298.21 322.38 296.769 324.514 296.769 326.274C296.769 327.266 297.218 328.632 297.78 329.381C298.042 329.718 300.194 331.328 302.572 332.919C310.601 338.367 318.088 343.852 319.305 345.199C319.698 345.63 320.334 346.641 320.709 347.427C321.364 348.812 321.383 348.887 321.383 351.096V353.343L319.623 358.771C318.669 361.748 317.826 364.312 317.751 364.425C317.658 364.593 316.853 364.088 315.206 362.871C306.446 356.375 296.076 349.337 294.56 348.85C292.333 348.12 289.731 349.243 288.645 351.414C287.691 353.324 288.14 355.87 289.675 357.292C290.031 357.611 292.22 359.164 294.56 360.718C302.197 365.81 313.783 374.29 313.802 374.777C313.802 374.945 313.297 375.994 312.66 377.117C307.082 387.207 298.903 394.994 288.439 400.142C282.188 403.231 277.041 404.803 270.003 405.796C266.746 406.245 258.678 406.245 255.44 405.796C250.967 405.159 248.721 404.616 247.373 403.811C245.67 402.8 241.701 399.955 239.511 398.195C225.866 387.151 216.283 371.594 213.213 355.477C212.951 354.166 212.577 352.762 212.371 352.369C210.836 349.393 206.887 348.794 204.434 351.152C203.555 351.995 203.237 352.575 202.993 353.754C202.638 355.364 203.854 361.092 205.726 366.708C209.133 376.892 214.486 386.364 221.543 394.732C222.254 395.575 222.834 396.305 222.834 396.361C222.834 396.679 221.168 395.799 219.989 394.863C211.529 388.124 204.865 380.187 199.793 370.864C196.48 364.743 193.56 356.75 192.605 351.096C192.231 348.887 191.856 347.951 190.995 347.09C188.487 344.582 184.369 345.274 182.853 348.475C182.123 350.029 182.273 351.976 183.546 357.086C184.931 362.571 187.065 368.169 189.966 373.934C192.362 378.652 194.533 382.209 197.434 386.121C198.557 387.637 199.418 388.892 199.381 388.929C199.343 388.966 198.539 388.742 197.565 388.405C195.918 387.862 195.731 387.731 194.028 386.158C186.335 378.989 179.915 369.666 175.872 359.82C174.075 355.458 172.54 350.179 171.922 346.248C171.585 344.076 170.78 342.878 169.096 342.036C166.625 340.8 163.836 341.624 162.451 344.001C161.74 345.199 161.665 346.66 162.17 349.318C164.098 359.314 168.74 370.19 175.01 379.382C176.283 381.254 176.527 381.703 176.19 381.61C175.946 381.535 174.842 381.179 173.7 380.823L171.641 380.168L169.957 378.446C161.309 369.591 153.878 355.533 151.707 343.889C151.07 340.444 150.846 339.827 149.854 338.835C147.346 336.326 143.34 337.056 141.693 340.313C141.169 341.343 141.15 342.672 141.581 345.012C142.779 351.377 145.455 359.09 148.656 365.492C149.48 367.139 149.479 367.139 148.955 366.765C148.656 366.559 147.327 365.248 145.979 363.882C138.848 356.525 133.757 348.157 130.668 338.703C128.703 332.676 127.842 327.827 127.468 320.602L127.336 318.393L130.125 318.505C131.642 318.58 135.46 318.767 138.605 318.917C146.897 319.347 146.953 319.347 148.057 318.842C149.255 318.299 149.929 317.644 150.546 316.465C151.52 314.611 151.07 311.972 149.517 310.549C148.469 309.557 147.514 309.238 145.081 309.07C142.629 308.883 136.695 308.602 131.548 308.396C129.77 308.321 128.31 308.246 128.31 308.209C128.31 307.891 129.508 302.574 129.826 301.507C130.837 298.063 131.96 294.674 132.334 293.907C132.877 292.859 134.225 291.567 135.385 291.043C136.19 290.668 136.546 290.631 139.353 290.668C141.056 290.687 144.894 290.837 147.87 291.024C156.574 291.529 156.648 291.53 158.314 289.995C160.897 287.598 160.411 283.536 157.341 281.851C156.143 281.215 155.207 281.121 146.653 280.709C143.097 280.541 139.391 280.354 138.399 280.279L136.62 280.148L138.811 273.278C140.008 269.515 141.206 266.033 141.487 265.584C142.629 263.618 144.519 262.645 147.177 262.645C148.881 262.645 157.023 263.075 161.534 263.394C163.742 263.562 164.304 263.543 165.127 263.3C167.935 262.476 169.526 259.519 168.647 256.823C168.235 255.569 166.981 254.202 165.783 253.697C164.791 253.266 160.429 252.911 150.865 252.517C147.982 252.386 145.586 252.274 145.568 252.237C145.53 252.218 146.035 250.477 146.709 248.38C147.383 246.284 148.375 243.195 148.899 241.491C149.442 239.788 150.078 238.066 150.303 237.654C150.902 236.624 151.801 235.819 153.017 235.183C154.028 234.677 154.103 234.659 156.948 234.696C158.539 234.715 161.796 234.864 164.154 235.014C172.296 235.576 173.476 235.595 174.468 235.22C178.717 233.591 178.847 227.601 174.673 225.767C173.569 225.28 169.807 224.98 157.098 224.344C155.675 224.288 154.514 224.138 154.514 224.044C154.514 223.539 158.894 210.211 159.287 209.555C160.036 208.282 161.328 207.271 162.769 206.841C164.192 206.41 164.959 206.429 176.676 207.253C181.861 207.608 182.123 207.608 183.134 207.309C184.556 206.86 185.96 205.474 186.428 204.07C186.821 202.891 186.746 201.281 186.241 200.289C185.548 198.941 184.032 197.706 182.685 197.425C181.917 197.275 175.553 196.826 168.927 196.451C165.895 196.283 163.387 196.133 163.387 196.133C163.368 196.115 164.36 192.932 165.595 189.076C168.235 180.802 168.515 180.24 170.743 179.079C172.315 178.274 172.54 178.274 185.268 179.173C190.733 179.566 191.089 179.566 192.025 179.285C194.121 178.611 195.562 176.627 195.581 174.362C195.6 172.153 194.065 170.131 191.894 169.532C190.977 169.27 184.257 168.727 176.133 168.278C174.074 168.166 172.371 168.053 172.334 168.035C172.315 167.997 173.307 164.796 174.543 160.902C176.995 153.283 177.256 152.684 178.81 151.524C180.401 150.363 181.187 150.232 185.586 150.494C187.701 150.625 191.445 150.887 193.915 151.075C196.386 151.28 198.838 151.449 199.362 151.449C201.253 151.449 202.918 150.513 203.873 148.884C204.584 147.667 204.697 145.72 204.116 144.373C203.424 142.763 201.851 141.546 200.073 141.265C199.194 141.115 187.439 140.273 183.864 140.104C182.441 140.03 181.281 139.917 181.281 139.861C181.281 139.674 183.433 132.916 183.976 131.4C185.848 126.196 189.049 120.505 192.717 115.844C194.87 113.111 199.83 108.262 202.619 106.147C206.962 102.852 211.828 100.063 216.564 98.1721C218.959 97.2174 222.815 95.9444 222.535 96.2065C222.441 96.3001 221.449 97.0302 220.307 97.8164C212.39 103.414 204.547 111.407 199.624 118.895C197.696 121.815 197.49 122.321 197.472 123.931C197.472 125.147 197.547 125.466 198.014 126.327C199.343 128.704 202.207 129.659 204.584 128.536C205.745 127.993 206.437 127.263 207.635 125.278C210.275 120.992 214.711 115.788 219.016 111.913C227.064 104.668 235.768 99.5574 245.913 96.1316C247.946 95.4366 248.865 95.1751 249.617 95.1587ZM219.671 143.231C219.615 143.231 219.165 143.343 218.679 143.474C214.954 144.466 213.55 148.903 216.021 151.786C217.144 153.115 218.099 153.414 222.647 153.976C242.843 156.447 264.893 160.584 280.597 164.834C293.55 168.334 304.013 172.022 313.858 176.533C316.479 177.731 316.834 177.844 317.939 177.844C322.506 177.844 324.696 172.209 321.308 169.195C320.353 168.353 318.013 167.192 312.585 164.927C291.809 156.204 264.612 149.39 232.754 144.916C227.776 144.204 219.914 143.193 219.671 143.231ZM210.711 171.343C210.065 171.353 209.671 171.441 209.226 171.591C206.849 172.434 205.371 175.317 206.063 177.731C206.456 179.098 207.373 180.259 208.552 180.895C209.413 181.363 210.05 181.475 214.074 181.981C252.446 186.68 283.292 194.186 304.911 204.07C307.644 205.325 308 205.437 309.123 205.437C313.446 205.437 315.749 200.439 312.941 197.144C312.436 196.564 311.724 196.114 310.133 195.347C304.817 192.801 297.686 189.993 289.843 187.372C269.535 180.596 245.314 175.466 217.05 171.947C213.765 171.547 212.068 171.36 211.004 171.343C210.901 171.341 210.803 171.341 210.711 171.343ZM202.076 199.227C201.435 199.217 201.112 199.306 200.541 199.484C199.269 199.877 197.865 201.206 197.397 202.479C196.816 203.995 196.873 205.25 197.584 206.654C198.539 208.563 199.905 209.312 202.993 209.649C206.924 210.079 216.863 211.371 221.15 212.026C252.932 216.781 278.107 223.371 296.395 231.757C298.173 232.581 299.24 232.936 299.97 233.011C304.406 233.442 307.082 228.107 304.144 224.681C303.432 223.838 302.197 223.202 297.05 220.993C274.289 211.259 243.293 203.995 205.52 199.559C203.677 199.344 202.717 199.236 202.076 199.227ZM192.979 227.077C192.773 227.096 192.156 227.245 191.613 227.433C190.396 227.844 189.067 229.061 188.525 230.26C187.963 231.495 188.019 233.255 188.637 234.49C189.217 235.651 190.322 236.662 191.407 237.055C191.856 237.223 194.177 237.579 196.536 237.841C223.938 240.93 248.103 245.685 267.757 251.825C274.682 253.978 282.562 256.954 287.597 259.294C290.012 260.417 290.18 260.473 291.622 260.473C293.306 260.492 294.167 260.155 295.215 259.051C296.544 257.665 296.993 255.232 296.226 253.547C295.402 251.731 294.598 251.207 288.439 248.605C265.754 239.02 235.188 231.907 198.22 227.639C195.544 227.339 193.185 227.077 192.979 227.077ZM184.176 255.011C183.675 255.004 183.44 255.054 183.153 255.138C181.599 255.625 180.513 256.523 179.765 257.965C179.166 259.125 179.147 261.278 179.727 262.364C180.27 263.394 181.58 264.573 182.61 264.947C183.059 265.116 185.08 265.434 187.083 265.64C190.49 265.996 198.539 267.007 205.239 267.886C214.767 269.159 229.292 271.818 239.025 274.064C254.673 277.677 268.58 282.132 278.95 286.85C281.383 287.954 281.589 288.01 282.918 288.01C284.603 287.991 285.445 287.617 286.605 286.382C287.522 285.371 287.859 284.435 287.859 282.956C287.841 281.57 287.485 280.71 286.474 279.624C285.875 278.95 285.22 278.557 283.329 277.714C260.999 267.624 228.711 259.949 190.359 255.625C186.58 255.192 185.01 255.022 184.176 255.011ZM175.297 282.907C174.734 282.915 174.47 283.006 173.962 283.162C172.671 283.555 171.286 284.884 170.799 286.194C170.293 287.486 170.368 289.133 170.949 290.257C171.454 291.23 172.577 292.316 173.494 292.69C173.925 292.877 176.246 293.214 179.39 293.551C217.687 297.67 248.739 304.764 270.414 314.386C271.725 314.967 273.166 315.491 273.615 315.547C275.468 315.809 277.733 314.536 278.65 312.739C279.493 311.092 279.23 308.789 278.033 307.329C277.284 306.412 276.535 306 272.53 304.296C249.732 294.543 218.211 287.393 180.102 283.33C177.238 283.025 176.02 282.897 175.297 282.907ZM166.473 310.827C165.713 310.834 165.247 310.907 164.903 311.036C163.031 311.728 161.814 313.394 161.665 315.453C161.552 317.045 161.927 318.168 162.975 319.291C164.117 320.527 164.94 320.77 169.395 321.219C207.392 325.057 238.426 331.908 260.663 341.381C263.882 342.766 264.481 342.953 265.436 342.953C267.476 342.953 269.366 341.643 270.096 339.715C270.602 338.385 270.433 336.532 269.703 335.353C268.936 334.099 267.981 333.499 263.976 331.815C241.926 322.455 212.895 315.809 176.264 311.691C171.187 311.118 168.428 310.851 166.816 310.828C166.695 310.827 166.581 310.826 166.473 310.827Z" fill="#f1f0f1"/>
</svg>
