<svg width="915" height="358" viewBox="0 0 915 358" fill="none" xmlns="http://www.w3.org/2000/svg">
<path d="M218.855 0C216.913 0 214.911 0.15161 213.508 0.454668C206.33 2.01776 198.004 6.45197 189.87 12.9915C181.225 19.9776 167.572 34.811 155.003 50.9205C131.238 81.3531 102.4 126.747 71.4569 182.444C65.1726 193.737 49.191 223.627 42.8109 235.972C42.0772 237.408 41.4071 238.556 41.3114 238.492C41.1838 238.333 44.0869 230.262 46.8941 222.957C54.7415 202.637 61.4407 187.389 76.1466 156.446C84.6958 138.486 99.7525 106.49 104.633 95.9953C117.617 67.9871 125.432 46.2632 127.569 32.3548C128.303 27.5379 128.303 20.6791 127.537 17.3615C125.942 10.3435 121.54 5.84562 114.427 3.96351C112.194 3.38931 107.026 2.65553 106.771 2.91072C106.675 2.97453 106.77 3.8997 106.962 4.92051C108.589 13.693 99.1783 40.1061 81.7928 75.6427C73.6264 92.3583 64.7583 108.946 52.445 130.67C38.5047 155.233 31.0719 168.982 22.427 186.272C6.38132 218.395 0.0648891 236.706 0.00108112 251.189C-0.0308109 256.867 0.639042 260.312 2.52115 263.885C5.74306 269.978 12.5697 274.284 23.6709 277.187C26.829 278.016 34.166 279.42 35.2825 279.42C35.4739 279.42 35.9525 278.495 36.3353 277.378C41.535 262.513 55.8581 234.983 72.5737 207.804C79.8151 196.001 95.2544 172.842 95.6053 173.257C95.6372 173.32 95.5414 175.426 95.3819 177.978C94.9353 185.124 94.9353 206.465 95.3819 211.632C97.2002 231.889 101.156 247.361 107.185 257.856C113.597 268.925 121.062 275.528 129.739 277.857C133.088 278.75 139.691 278.814 143.455 278.016C150.218 276.549 156.088 273.933 163.201 269.18C166.966 266.692 174.462 260.727 175.93 259.1C176.472 258.462 176.44 258.462 174.367 257.919C167.03 256.133 158.034 250.2 149.995 241.874C140.074 231.602 133.949 219.288 130.536 202.668C128.845 194.534 128.814 193.577 128.782 170.96C128.782 152.075 128.718 149.364 128.207 146.238C127.442 141.517 126.899 139.187 125.687 135.328L124.698 132.074L128.176 127.512C142.531 108.627 160.873 85.851 171.304 73.8885C177.588 66.6472 183.713 60.1395 190.253 53.6957C199.887 44.1895 204.767 40.1701 213.38 34.6833C223.971 27.9205 234.052 23.933 240.527 23.9012C241.963 23.9012 242.505 23.7733 242.505 23.4862C242.505 22.6568 240.623 16.3726 239.698 14.1396C238.549 11.3962 236.795 8.55732 235.2 6.89853C232.807 4.34652 227.671 1.44356 223.843 0.454668C222.679 0.15161 220.797 0 218.855 0ZM355.712 16.2821C354.576 16.2552 354.283 16.4526 353.326 17.1704C351.156 18.7973 346.18 25.8153 343.947 30.4408C339.768 39.0219 336.482 51.4627 337.024 56.6943C337.471 61.0327 341.427 65.8815 347.935 70.0923C349.881 71.3683 351.731 72.5806 352.05 72.8039C352.656 73.2186 352.624 73.3779 350.965 78.0034C342.671 101.386 333.452 123.142 322.447 145.121C306.114 177.787 292.715 197.947 277.914 212.207C268.918 220.883 262.857 223.085 259.667 218.778C257.37 215.684 258.806 205.348 263.463 191.408C268.057 177.627 274.883 161.996 286.75 138.294C296.48 118.835 302.381 107.734 308.155 98.0686C310.292 94.4639 318.172 82.5015 319.448 80.9384L320.149 80.045L319.352 79.2155C317.247 76.9507 310.037 73.6971 303.529 72.1021C297.979 70.7304 291.695 69.6456 291.344 69.9965C291.121 70.2517 285.57 79.0245 283.401 82.5973C283.145 83.012 282.922 82.9479 281.869 82.1823C273.671 76.1851 267.546 73.0592 260.209 71.2409C255.999 70.1563 247.705 69.8371 244.228 70.5708C237.465 72.0063 230.797 76.5362 223.141 84.894C213.954 94.8787 203.619 108.659 194.815 122.631C185.085 138.039 175.579 157.083 171.304 169.652C167.253 181.551 165.626 190.292 165.626 199.957C165.626 212.653 168.37 220.692 174.941 227.168C177.206 229.401 181.448 232.399 183.873 233.484C188.307 235.43 195.421 234.058 201.673 230.039C207.925 226.019 216.602 217.885 221.706 211.314C225.183 206.816 229.49 200.468 233.573 193.769C236.093 189.653 236.476 189.175 236.317 190.26C233.924 206.114 236.859 218.427 245.089 227.232C252.043 234.664 258.168 236.132 266.813 232.463C276.192 228.507 286.846 218.395 300.85 200.212C303.881 196.257 315.684 178.616 318.778 173.352C327.965 157.881 347.201 117.655 361.492 84.1603L364.14 77.9076L368.159 79.2796C377.474 82.4058 385.768 83.8092 399.995 84.5748L407.109 84.9575L406.312 86.2655C401.271 94.9104 388.735 119.059 383.631 129.969C372.88 153.032 364.044 175.745 361.684 186.304C358.908 198.745 360.344 213.259 365.161 221.394C368 226.243 373.008 231.091 377.282 233.165C387.65 238.205 402.324 229.369 420.124 207.358L423.856 202.764L423.952 204.168C424.112 206.848 424.941 211.633 425.77 214.44C427.684 221.075 431.576 226.498 437.414 230.581C441.465 233.452 442.614 233.899 445.9 234.058C453.492 234.409 461.339 230.294 471.483 220.596C478.118 214.248 485.36 204.582 492.76 192.269C493.781 190.546 494.642 189.175 494.674 189.239C494.706 189.271 494.547 190.802 494.323 192.652C493.749 197.373 493.781 205.061 494.356 208.379C496.014 217.821 500.512 225.317 508.072 231.155C515.314 236.706 524.533 234.76 536.464 225.126C541.376 221.202 548.553 213.578 554.742 205.795C556.975 202.987 557.358 202.637 557.485 203.243C557.581 203.657 557.805 204.838 558.028 205.89C559.4 213.164 563.26 220.979 567.694 225.35C581.028 238.652 604.474 236.514 626.9 219.99C633.567 215.046 641.574 207.581 646.71 201.425C652.771 194.215 659.629 184.071 662.628 177.914C663.298 176.542 664.127 175.043 664.478 174.565C664.829 174.086 665.691 172.491 666.392 171.056L667.7 168.472L669.55 168.249C675.101 167.643 680.556 166.143 684.384 164.229C686.266 163.272 691.529 159.923 692.646 158.966C693.539 158.168 693.539 158.487 692.71 160.337C690.923 164.388 685.277 178.999 684.065 182.763C680.619 193.45 678.993 203.179 679.312 211.25C679.503 216.322 680.077 218.395 682.47 222.479C684.99 226.785 687.893 229.529 692.04 231.538C695.102 233.006 698.42 234.122 699.855 234.122C700.302 234.122 701.833 231.187 707.128 220.15C717.879 197.692 727.066 178.233 729.778 172.204L732.298 166.59L734.371 167.515C735.488 168.025 737.497 168.727 738.837 169.078C740.145 169.429 741.357 169.812 741.485 169.939C741.931 170.386 742.378 173.863 742.378 177.021C742.378 181.678 741.58 184.741 738.358 193.003C737.433 195.364 736.381 198.49 736.03 199.893C734.084 207.422 734.658 215.779 737.465 221.936C740.241 228.029 744.834 232.24 750.193 233.643C751.246 233.899 753.383 234.122 754.978 234.122C767.611 234.122 780.052 224.36 793.546 203.881L796.129 199.957L796.385 201.648C797.565 209.4 798.426 212.749 800.436 217.087C804.391 225.669 810.166 230.9 818.204 233.229C820.374 233.867 821.426 233.963 826.435 233.963C831.284 233.963 832.687 233.835 835.462 233.229C856.293 228.571 879.356 210.293 897.827 183.848C901.75 178.201 905.419 172.076 905.26 171.438C905.164 171.056 904.621 169.716 904.015 168.44L902.962 166.111L900.602 169.238C888.64 185.251 874.603 200.723 863.119 210.612C850.838 221.203 838.078 227.136 829.784 226.115C825.51 225.605 822.606 223.819 821.011 220.756C818.778 216.45 818.428 207.677 820.087 198.139C821.363 190.738 825.095 178.488 828.667 170.003C831.825 162.475 837.855 150.991 841.428 145.663L842.48 144.132L844.139 146.461C846.308 149.427 851.699 154.978 854.219 156.797C856.708 158.583 859.579 159.923 862.801 160.784C864.842 161.358 866.278 161.486 869.978 161.517C874.221 161.549 874.763 161.486 876.741 160.72C888.448 156.191 901.112 139.985 909.661 118.58C913.17 109.839 914.766 103.109 914.766 97.271C914.766 93.7939 914.67 92.9648 913.904 90.7318C912.15 85.4364 909.311 81.8634 904.111 78.4501C897.253 73.9522 891.766 72.0384 880.027 70.1563L876.071 69.4862L872.147 71.4642C866.469 74.3033 863.789 75.8661 857.697 79.9174C837.823 93.0602 821.458 111.754 810.835 133.318C803.275 148.63 798.873 163.942 797.086 180.849C796.799 183.561 796.416 186.112 796.257 186.527C795.906 187.388 789.718 196.289 785.347 202.222C779.924 209.527 774.916 215.62 771.056 219.512C766.973 223.659 765.282 224.711 763.687 224.169C761.135 223.276 761.263 221.267 764.517 209.878C771.088 187.165 770.737 182.38 761.837 171.343C760.274 169.397 760.082 168.727 761.071 168.727C762.092 168.727 766.271 166.494 768.855 164.58C774.182 160.656 782.476 151.565 788.665 142.888C802.765 123.174 811.792 100.174 810.835 86.5846C810.58 83.0756 809.942 80.2363 808.89 78.0352C805.891 71.719 797.342 68.2421 790.228 70.4432C780.467 73.5056 765.984 88.435 751.47 110.35C746.11 118.485 739.316 129.937 731.851 143.43C730.384 146.11 729.108 148.247 729.076 148.184C728.884 147.992 744.101 118.357 747.163 112.902C758.456 92.8051 781.742 54.0466 793.641 35.6403L797.278 29.9941L796.066 28.8777C793.578 26.5809 787.134 23.7096 781.041 22.1465C777.723 21.3171 768.855 19.6266 768.727 19.818C768.408 20.2008 761.199 31.9718 757.69 37.7776C739.571 67.8274 723.334 97.1435 709.138 125.343L703.141 137.306L699.664 141.006C693.38 147.641 685.66 153.798 680.014 156.605C676.856 158.168 672.198 159.7 672.198 159.157C672.198 159.03 672.9 157.052 673.761 154.787C677.366 145.312 679.152 139.219 680.779 130.766C682.119 123.812 682.502 120.207 682.502 114.338C682.502 108.436 682.151 105.789 680.62 99.8233C677.366 87.3185 672.421 80.0451 663.426 74.6221C656.248 70.2837 648.528 68.3696 643.52 69.6455C639.086 70.7939 636.885 72.5804 633.121 78.2585C627.857 86.1697 624.954 93.0601 622.945 102.439L622.753 103.332L620.903 101.928C618.032 99.7592 615.576 98.2601 612.098 96.6013C608.877 95.0701 602.975 92.8051 602.209 92.8051C601.444 92.8051 594.458 100.27 589.226 106.682C574.01 125.311 563.802 147.673 559.144 172.555C558.538 175.809 557.868 180.02 557.677 181.965C557.454 183.879 557.167 185.793 557.039 186.144C556.656 187.101 551.584 194.152 547.533 199.351C538.824 210.516 531.615 217.534 526.288 219.958C523.002 221.458 519.716 221.011 518.057 218.778C514.995 214.695 518.089 199.606 526.224 178.999C533.848 159.603 552.35 122.089 564.568 101.227C567.917 95.4845 574.424 85.3723 576.721 82.3099L578.508 79.9174L577.168 78.7693C575.573 77.3976 570.277 74.6858 566.928 73.5693C563.929 72.5485 553.594 69.9649 551.392 69.6778L549.734 69.4544L548.139 71.9745C547.246 73.3462 545.427 76.3448 544.056 78.6735C542.684 81.0022 541.504 82.8842 541.408 82.8842C541.312 82.9161 539.366 81.6082 537.102 80.0132C530.785 75.5791 523.736 72.3572 517.324 70.9217C514.197 70.2199 505.871 69.9646 503 70.475C497.29 71.4639 491.644 74.4944 486.763 79.088C473.652 91.4971 456.044 115.805 443.635 138.582C435.181 154.053 429.63 167.387 426.568 179.573C425.675 183.178 425.387 183.816 423.633 186.432C412.085 203.498 399.9 216.864 392.945 220.118C388.862 222.032 385.672 221.362 384.141 218.331C381.27 212.621 386.087 193.896 396.742 169.365C403.249 154.372 418.37 123.876 426.823 108.755C431.895 99.6316 438.658 88.8178 442.741 83.2033C443.858 81.6721 444.751 80.3324 444.751 80.2048C444.751 79.6944 441.465 75.8983 438.945 73.5058C433.426 68.2104 426.089 64.3504 419.901 63.4891C417.891 63.2339 417.126 63.2656 414.956 63.776C404.876 66.1685 392.85 66.2326 382.705 63.9358C378.303 62.9469 371.7 60.8733 371.7 60.4905C371.7 60.331 373.008 56.9494 374.603 52.9938C378.303 43.8385 379.228 41.0634 379.675 38.001C380.313 33.5669 379.356 30.2492 376.198 26.0703C374.124 23.3269 371.604 21.3812 367.712 19.4353C363.948 17.5851 360.694 16.6279 357.185 16.3727C356.563 16.3249 356.091 16.291 355.712 16.2821ZM658.864 82.5015L662.277 86.1061C664.127 88.0839 666.201 90.4447 666.871 91.3378C674.144 101.004 673.857 117.432 666.01 141.006C664.319 146.11 660.905 154.946 660.459 155.393C660.108 155.744 655.163 151.979 651.846 148.821C648.273 145.408 646.391 142.952 644.605 139.379C641.766 133.701 640.713 128.661 641.032 121.994C641.638 109.935 645.625 100.27 655.674 86.7762L658.864 82.5015ZM786.215 83.3071C786.254 83.3053 786.284 83.313 786.304 83.3309C786.336 83.3947 785.666 85.6596 784.773 88.3711C774.98 118.166 762.475 139.379 748.599 149.747C747.386 150.672 745.696 151.788 744.898 152.267C743.271 153.192 738.231 155.106 738.008 154.883C737.816 154.723 746.748 138.646 752.203 129.363C759.668 116.635 764.485 109.106 771.822 98.8663C775.49 93.7623 777.947 90.7315 780.977 87.5734C782.921 85.5099 785.622 83.3344 786.215 83.3071ZM529.331 89.7075C529.857 89.7102 530.422 89.7226 531.04 89.7425C533.497 89.8063 535.921 89.9977 536.4 90.221L537.325 90.572L536.687 91.6248C535.474 93.6026 528.808 106.458 523.417 117.209C517.706 128.533 514.133 136.157 509.604 146.876C508.136 150.385 506.222 154.819 505.393 156.765C503.862 160.369 500.544 165.441 488.039 183.401C472.887 205.125 458.149 222.255 451.96 225.35C447.59 227.551 445.58 225.126 446.346 218.523C448.005 203.913 458.085 176.128 471.451 149.427C479.618 133.095 486.285 121.994 494.005 111.786C497.386 107.288 504.659 99.8552 507.562 97.9093C510.21 96.1548 516.079 93.156 519.429 91.8481C523.895 90.1454 525.65 89.6883 529.331 89.7075ZM271.955 89.95C273.729 89.9388 275.494 90.0478 276.861 90.2851C277.978 90.4765 278.871 90.6997 278.871 90.7636C278.871 90.8274 277.085 94.3043 274.883 98.4513C263.272 120.462 254.818 138.167 247.577 155.744C245.95 159.699 242.92 164.389 230.287 182.604C215.9 203.275 202.247 219.48 195.102 224.297C186.648 230.007 185.659 222.064 192.167 200.627C198.451 179.86 212.551 148.566 224.705 128.373C232.616 115.263 240.718 104.991 247.386 99.6635C251.341 96.4735 260.56 91.9756 265.888 90.572C267.377 90.1772 269.674 89.9644 271.955 89.95ZM885.83 100.3C885.848 100.296 885.859 100.297 885.864 100.302C885.928 100.334 884.971 102.981 883.727 106.139C876.582 124.577 871.286 135.04 865.863 141.548C864.076 143.685 862.418 144.962 860.791 145.408C859.643 145.759 856.229 145.153 853.422 144.1C851.38 143.335 848.127 141.134 846.883 139.666C845.862 138.486 845.734 138.741 849.658 133.701C857.76 123.302 867.522 113.413 876.358 106.65C878.861 104.765 885.286 100.425 885.83 100.3ZM621.676 119.038C621.991 119.058 622.055 119.621 622.083 120.654C622.179 124.035 624.508 131.946 626.9 136.986C632.515 148.917 640.011 156.605 654.175 164.995L655.674 165.856L653.6 169.812C638.831 197.82 619.436 217.694 601.54 223.149C598.956 223.946 598.19 224.042 593.565 224.042C587.759 224.074 586.674 223.818 584.696 222.032C579.146 217.055 579.369 202.126 585.302 182.093C591.236 161.9 604.347 138.326 618.766 121.802C620.452 119.882 621.271 119.012 621.676 119.038ZM539.409 251.478C514.924 251.478 495.517 270.433 495.517 294.466C495.517 318.95 515.263 337.793 540.875 337.793C553.512 337.793 564.231 333.392 572.468 324.93C580.14 316.919 584.428 306.539 584.428 295.82V293.789H529.931V308.231H564.456C560.056 317.483 551.03 322.899 539.973 322.899C523.612 322.899 511.088 310.713 511.088 294.691C511.088 287.47 514.134 279.572 518.873 274.495C523.725 269.305 531.059 266.371 539.07 266.371C548.773 266.371 556.897 270.32 561.974 277.428H580.14C574.724 262.422 557.574 251.478 539.409 251.478ZM862.779 252.945V336.326H877.785V252.945H862.779ZM623.467 272.351C605.301 272.351 590.407 287.132 590.407 305.072C590.407 323.125 605.301 337.793 623.579 337.793C641.745 337.793 656.864 323.125 656.864 305.523C656.864 286.906 642.309 272.351 623.467 272.351ZM684.395 272.351C672.661 272.351 663.634 280.701 663.634 291.419C663.634 300.559 668.486 305.749 681.01 309.923C686.651 311.842 687.215 312.067 688.795 313.083C690.6 314.211 691.616 315.904 691.616 317.935C691.616 321.432 688.795 324.028 684.846 324.028C680.446 324.028 677.963 321.771 676.496 316.468H661.377C662.054 322.561 663.07 325.832 665.552 329.105C669.614 334.52 676.722 337.793 684.282 337.793C696.806 337.793 706.622 328.428 706.622 316.468C706.622 306.99 701.883 302.026 689.246 298.189C683.041 296.271 683.041 296.271 681.574 295.594C679.769 294.692 678.64 293.225 678.64 291.307C678.64 288.373 681.123 286.117 684.395 286.117C687.554 286.117 689.585 287.809 690.262 291.081H704.93C704.704 285.778 703.463 282.619 700.417 279.234C696.468 274.834 690.601 272.351 684.395 272.351ZM750.4 272.351C741.825 272.351 734.604 275.397 729.752 281.152V273.818H715.987V357.2H730.993V330.459C736.747 335.536 742.502 337.793 750.174 337.793C768.227 337.793 781.429 323.802 781.429 304.846C781.429 286.004 768.34 272.351 750.4 272.351ZM820.693 272.351C802.302 272.351 787.747 286.906 787.747 305.298C787.747 323.576 802.528 337.793 821.596 337.793C831.863 337.793 839.874 334.069 846.419 326.51C848.788 323.576 850.368 320.981 851.383 317.821H835.022C831.186 322.335 827.463 324.028 821.258 324.028C812.344 324.028 805.799 319.289 803.994 311.729H852.398C852.85 309.472 852.963 308.118 852.963 305.862C852.963 286.568 839.31 272.351 820.693 272.351ZM623.579 286.117C633.621 286.117 641.745 294.579 641.745 305.072C641.745 315.565 633.621 324.028 623.692 324.028C613.537 324.028 605.527 315.565 605.527 304.846C605.527 294.579 613.65 286.117 623.579 286.117ZM748.369 286.117C758.524 286.117 766.309 294.353 766.309 305.185C766.309 315.791 758.524 324.028 748.595 324.028C737.989 324.028 730.091 315.904 730.091 304.959C730.091 294.24 737.989 286.117 748.369 286.117ZM820.919 286.117C830.171 286.117 836.264 290.517 838.182 298.528H803.543C805.913 290.404 812.005 286.117 820.919 286.117Z" fill="#f1f0f1"/>
</svg>
